<svg width="33" height="41" viewBox="0 0 33 41" fill="none" xmlns="http://www.w3.org/2000/svg">
<path fill-rule="evenodd" clip-rule="evenodd" d="M3.80769 17.0655V15.8014C3.80769 15.4568 4.09431 15.1694 4.44788 15.1694H28.5521C28.9072 15.1694 29.1923 15.4523 29.1923 15.8014V17.0655C26.918 17.0659 24.8765 18.0591 23.481 19.6335C22.0854 18.0586 20.0432 17.0655 17.7678 17.0655H15.2322C12.9575 17.0655 10.9156 18.0585 9.51993 19.633C8.12423 18.0585 6.08235 17.0655 3.80769 17.0655ZM31.7308 13.2732H1.26923C0.568254 13.2732 0 12.7072 0 12.0091V1.26411C0 0.565963 0.568254 0 1.26923 0H6.98077C7.68175 0 8.25 0.565963 8.25 1.26411V5.05645H11.4231V1.26411C11.4231 0.565963 11.9913 0 12.6923 0H20.3077C21.0087 0 21.5769 0.565963 21.5769 1.26411V5.05645H24.75V1.26411C24.75 0.565963 25.3183 0 26.0192 0H31.7308C32.4317 0 33 0.565963 33 1.26411V12.0091C33 12.7072 32.4317 13.2732 31.7308 13.2732ZM23.481 22.3524C24.8456 20.3087 27.1791 18.9617 29.8283 18.9617C30.5293 18.9617 31.0975 19.5277 31.0975 20.2258V39.1875C31.0975 39.8857 30.5293 40.4516 29.8283 40.4516H23.4808C22.7798 40.4516 22.2115 39.8857 22.2115 39.1875V26.5464C22.2115 23.753 19.9385 21.4899 17.1332 21.4899H15.8668C13.0622 21.4899 10.7885 23.7539 10.7885 26.5464V39.1875C10.7885 39.8851 10.2211 40.4507 9.52096 40.4516L9.52063 40.4516H3.17308C2.4721 40.4516 1.90385 39.8857 1.90385 39.1875V20.2258C1.90385 19.5277 2.4721 18.9617 3.17308 18.9617C5.822 18.9617 8.15525 20.3084 9.51993 22.3517C10.8846 20.3084 13.2179 18.9617 15.8668 18.9617H17.1332C19.783 18.9617 22.1165 20.3085 23.481 22.3524ZM24.75 34.0746L28.4131 31.237C28.4601 31.2006 28.5089 31.168 28.5591 31.1391V28.0064L24.75 30.9571V34.0746ZM24.75 27.7542L28.4131 24.9165C28.4601 24.8801 28.5089 24.8475 28.5591 24.8187V21.6163C28.5591 21.6163 28.0069 21.7446 27.2515 22.1884C25.7544 23.0679 24.75 24.6904 24.75 26.5464V27.7542ZM24.75 37.2775V37.9234H28.5591V34.3269L24.75 37.2775ZM4.44231 31.1399C4.492 31.1686 4.54033 31.201 4.58692 31.237L8.25139 34.0757V30.9581L4.44231 28.0074V31.1399ZM4.44231 24.8194C4.49202 24.8481 4.54037 24.8804 4.58698 24.9165L8.25139 27.7551V26.5464C8.25139 24.1861 6.62704 22.2034 4.44231 21.6462V24.8194ZM4.44231 34.3279V37.9234H8.25139V37.2786L4.44231 34.3279Z" fill="url(#paint0_linear)"/>
<defs>
<linearGradient id="paint0_linear" x1="-13.6813" y1="18.4982" x2="23.2213" y2="51.4145" gradientUnits="userSpaceOnUse">
<stop stop-color="#3142C6"/>
<stop offset="1" stop-color="#AF61D1"/>
</linearGradient>
</defs>
</svg>
